<svg id="Layer_1" data-name="Layer 1" xmlns="http://www.w3.org/2000/svg" viewBox="0 0 132.74 35"><defs><style>.cls-1,.cls-2{fill:#0f1e6c;}.cls-1{fill-rule:evenodd;}</style></defs><title>Celswap-logo-monochrome</title><path class="cls-1" d="M28.16,1.31V7.86A1.3,1.3,0,0,1,27,9.15l-6.72,1-.2,0a1.32,1.32,0,0,1-.19-2.62l2.75-.4a11.92,11.92,0,0,0-5.53-1.35,12.12,12.12,0,0,0-9,4.05,12,12,0,0,0-3.06,8.47,3.91,3.91,0,0,0-.91-.1,4.23,4.23,0,0,0-3,1.25,16.33,16.33,0,0,1,0-3.35A16.11,16.11,0,0,1,15.27,2a17.07,17.07,0,0,1,1.88-.11,15.84,15.84,0,0,1,8.39,2.38V1.31a1.31,1.31,0,0,1,2.62,0Z"/><path class="cls-1" d="M29.41,28.56l-1.89-1.24a1,1,0,0,0-.54-.16,1,1,0,0,0-.71.3,12,12,0,0,1-8.59,3.6A12.62,12.62,0,0,1,16.3,31,12.15,12.15,0,0,1,7,24.64l3.26,1a1.37,1.37,0,0,0,.4.05A1.3,1.3,0,0,0,11,23.16L5.85,21.53l-1.3-.41A1.31,1.31,0,0,0,3,21.81l-.74,1.53L.13,27.7a1.3,1.3,0,0,0,.61,1.74,1.17,1.17,0,0,0,.57.14,1.32,1.32,0,0,0,1.19-.74l1.07-2.23a16.26,16.26,0,0,0,2.16,3.05A15.74,15.74,0,0,0,8.9,32.37,16,16,0,0,0,17.68,35h0a16.07,16.07,0,0,0,8.74-2.63,15.77,15.77,0,0,0,3.12-2.66.82.82,0,0,0,.19-.6A.79.79,0,0,0,29.41,28.56Z"/><path class="cls-1" d="M52,12.58a4.52,4.52,0,0,0-4.65,4.63A4.51,4.51,0,0,0,52,21.82a5.18,5.18,0,0,0,3.9-1.6v3.14a6.53,6.53,0,0,1-4.29,1.43,7.39,7.39,0,0,1-7.39-7.58,7.38,7.38,0,0,1,7.39-7.57,6.48,6.48,0,0,1,4.29,1.43V14.2A5.21,5.21,0,0,0,52,12.58Z"/><path class="cls-1" d="M68.72,19.46c0-3.07-2-5.63-5.35-5.63A5.23,5.23,0,0,0,58,19.24a5.4,5.4,0,0,0,5.54,5.55,4.93,4.93,0,0,0,5-3.58l-2.77-.3A2.6,2.6,0,0,1,63.57,22c-1.65,0-2.3-.89-2.37-1.73h7.52ZM61.2,18.12c.07-.81.9-1.5,2.17-1.5s2.09.71,2.15,1.5Z"/><rect class="cls-2" x="70.55" y="8.99" width="3.25" height="15.47"/><path class="cls-1" d="M79.66,19.85a1.85,1.85,0,0,0,2,2c1.08,0,1.61-.54,1.61-1.16,0-.89-.9-1.31-2.46-2.24-3.18-1.93-3.89-3.1-3.89-4.9,0-2.31,1.9-3.88,4.38-3.88a4.56,4.56,0,0,1,4.6,4.85H82.83c0-1.24-.65-1.91-1.54-1.91A1.18,1.18,0,0,0,80,13.66c0,.81.57,1.17,2,2,2.88,1.67,4.4,2.93,4.4,5.15,0,2.6-2.19,4-4.69,4a4.86,4.86,0,0,1-5.05-4.94Z"/><polygon class="cls-1" points="106.35 13.83 102.46 24.47 99.12 24.47 96.93 18.52 94.77 24.47 91.41 24.47 87.52 13.83 90.94 13.83 93.09 20.45 95.23 13.83 98.66 13.83 100.78 20.45 102.93 13.83 106.35 13.83"/><path class="cls-1" d="M115.62,14l-.19,1.62A3.71,3.71,0,0,0,112,13.83a5.22,5.22,0,0,0-5.14,5.48A5.22,5.22,0,0,0,112,24.79,3.71,3.71,0,0,0,115.43,23l.19,1.62h2.95V14Zm-3.05,7.77a2.51,2.51,0,1,1,2.49-2.5A2.43,2.43,0,0,1,112.57,21.81Z"/><path class="cls-1" d="M127.61,13.83a3.75,3.75,0,0,0-3.43,1.82L124,14h-3V29.3h3.13V22.91a3.74,3.74,0,0,0,3.43,1.83,5.19,5.19,0,0,0,5.13-5.45A5.19,5.19,0,0,0,127.61,13.83Zm-.56,7.94a2.41,2.41,0,0,1-2.49-2.48,2.44,2.44,0,0,1,2.49-2.52,2.49,2.49,0,0,1,2.55,2.52A2.46,2.46,0,0,1,127.05,21.77Z"/><path class="cls-1" d="M32.3,8.91a3.89,3.89,0,1,0,3.89,3.88A3.89,3.89,0,0,0,32.3,8.91Zm0,5.48a1.6,1.6,0,1,1,1.6-1.6A1.6,1.6,0,0,1,32.3,14.39Z"/></svg>